<?xml version="1.0" encoding="UTF-8" standalone="no"?>
<!-- Created with Inkscape (http://www.inkscape.org/) -->

<svg
   xmlns:dc="http://purl.org/dc/elements/1.1/"
   xmlns:cc="http://creativecommons.org/ns#"
   xmlns:rdf="http://www.w3.org/1999/02/22-rdf-syntax-ns#"
   xmlns:svg="http://www.w3.org/2000/svg"
   xmlns="http://www.w3.org/2000/svg"
   xmlns:sodipodi="http://sodipodi.sourceforge.net/DTD/sodipodi-0.dtd"
   xmlns:inkscape="http://www.inkscape.org/namespaces/inkscape"
   width="200"
   height="30"
   viewBox="0 0 52.916667 7.9375"
   version="1.1"
   id="svg8"
   inkscape:version="0.92.3 (2405546, 2018-03-11)"
   sodipodi:docname="Tim_Herron.svg">
  <defs
     id="defs2" />
  <sodipodi:namedview
     id="base"
     pagecolor="#ffffff"
     bordercolor="#666666"
     borderopacity="1.0"
     inkscape:pageopacity="0.0"
     inkscape:pageshadow="2"
     inkscape:zoom="1.979899"
     inkscape:cx="215.48461"
     inkscape:cy="-7.1678053"
     inkscape:document-units="mm"
     inkscape:current-layer="flowRoot815"
     showgrid="false"
     units="px"
     width="200px"
     inkscape:window-width="1920"
     inkscape:window-height="1057"
     inkscape:window-x="3512"
     inkscape:window-y="-8"
     inkscape:window-maximized="1" />
  <metadata
     id="metadata5">
    <rdf:RDF>
      <cc:Work
         rdf:about="">
        <dc:format>image/svg+xml</dc:format>
        <dc:type
           rdf:resource="http://purl.org/dc/dcmitype/StillImage" />
        <dc:title></dc:title>
      </cc:Work>
    </rdf:RDF>
  </metadata>
  <g
     inkscape:label="Layer 1"
     inkscape:groupmode="layer"
     id="layer1"
     transform="translate(0,-289.0625)">
    <g
       aria-label="Tim Herron"
       transform="matrix(0.26458333,0,0,0.26458333,-20.642777,271.21969)"
       style="font-style:normal;font-variant:normal;font-weight:normal;font-stretch:normal;font-size:40px;line-height:1.25;font-family:Computerfont;-inkscape-font-specification:Computerfont;letter-spacing:0px;word-spacing:0px;fill:#000000;fill-opacity:1;stroke:none"
       id="flowRoot815">
      <g
         id="g851"
         transform="matrix(1.0760127,0,0,1.0760127,-8.8418412,18.875424)">
        <path
           inkscape:connector-curvature="0"
           id="path823"
           d="m 99.097422,49.589219 h -5.28 v 4.04 l 2.64,2.64 v 13.32 l -1.36,1.36 h -5.24 l -1.36,-1.36 v -20 h -5.4 v -2.64 h 16 z" />
        <path
           inkscape:connector-curvature="0"
           id="path825"
           d="m 104.9443,52.269219 v 6.68 l 2.68,2.68 v 7.96 l -1.36,1.36 h -2.6 l -1.36,-1.36 v -17.32 z m 0,-2.12 h -2.64 l -0.48,-0.48 v -1.84 l 0.48,-0.48 h 2.64 l 0.48,0.48 v 1.84 z" />
        <path
           inkscape:connector-curvature="0"
           id="path827"
           d="m 111.17805,70.949219 -1.36,-1.36 v -15.96 l 1.36,-1.36 h 23.92 l 1.36,1.36 v 17.32 h -2.64 v -16 h -8 v 4 l 2.64,2.64 v 8 l -1.36,1.36 h -2.56 l -1.36,-1.36 -0.04,-14.64 h -8 v 4 l 2.64,2.64 v 8 l -1.36,1.36 z" />
        <path
           inkscape:connector-curvature="0"
           id="path829"
           d="m 162.12117,48.309219 v 6.64 h 10.64 v -8 h 2.68 v 24 h -2.68 v -13.36 h -8.04 v 12.04 l -1.32,1.32 h -5.28 l -1.36,-1.36 v -21.28 l 1.36,-1.36 h 2.64 z" />
        <path
           inkscape:connector-curvature="0"
           id="path831"
           d="m 192.1718,60.269219 v -5.32 h -8 v 5.32 z m -5.36,2.68 v 5.32 h 5.36 v -2.68 h 2.68 v 4 l -1.36,1.36 h -13.28 l -1.36,-1.36 v -16 l 1.32,-1.32 h 13.32 l 1.32,1.32 v 8.04 l -1.32,1.32 z" />
        <path
           inkscape:connector-curvature="0"
           id="path833"
           d="m 198.87805,70.949219 -1.36,-1.36 v -15.96 l 1.36,-1.36 h 11.96 v 2.68 h -8 v 4 l 2.64,2.64 v 8 l -1.36,1.36 z" />
        <path
           inkscape:connector-curvature="0"
           id="path835"
           d="m 214.11242,70.949219 -1.36,-1.36 v -15.96 l 1.36,-1.36 h 11.96 v 2.68 h -8 v 4 l 2.64,2.64 v 8 l -1.36,1.36 z" />
        <path
           inkscape:connector-curvature="0"
           id="path837"
           d="m 229.3068,70.949219 -1.36,-1.36 v -15.96 l 1.36,-1.36 h 13.24 l 1.36,1.36 v 15.96 l -1.36,1.36 z m 11.96,-16 h -7.96 v 4.04 l 2.6,2.6 v 6.68 h 5.36 z" />
        <path
           inkscape:connector-curvature="0"
           id="path839"
           d="m 259.82242,54.949219 h -8 v 4.04 l 2.64,2.64 v 7.96 l -1.36,1.36 h -5.24 l -1.36,-1.36 v -15.96 l 1.36,-1.36 h 13.24 l 1.36,1.36 0.04,17.32 h -2.68 z" />
      </g>
    </g>
  </g>
</svg>
